<mxfile host="65bd71144e">
    <diagram id="RzV1OqvMHSCeDi-2Xnzu" name="학사관리erd">
        <mxGraphModel grid="1" page="1" gridSize="10" guides="1" tooltips="1" connect="1" arrows="1" fold="1" pageScale="1" pageWidth="1169" pageHeight="827" math="0" shadow="0">
            <root>
                <mxCell id="0"/>
                <mxCell id="1" parent="0"/>
                <mxCell id="2" value="학생" style="ellipse;whiteSpace=wrap;html=1;align=center;fontSize=15;" parent="1" vertex="1">
                    <mxGeometry x="702" y="304" width="75" height="30" as="geometry"/>
                </mxCell>
                <mxCell id="3" value="학과" style="ellipse;whiteSpace=wrap;html=1;align=center;fontSize=15;" parent="1" vertex="1">
                    <mxGeometry x="702" y="534" width="75" height="30" as="geometry"/>
                </mxCell>
                <mxCell id="7" value="이름" style="ellipse;whiteSpace=wrap;html=1;align=center;fontSize=15;" parent="1" vertex="1">
                    <mxGeometry x="817" y="304" width="75" height="30" as="geometry"/>
                </mxCell>
                <mxCell id="8" value="키" style="ellipse;whiteSpace=wrap;html=1;align=center;fontSize=15;" parent="1" vertex="1">
                    <mxGeometry x="817" y="344" width="75" height="30" as="geometry"/>
                </mxCell>
                <mxCell id="9" value="학번" style="ellipse;whiteSpace=wrap;html=1;align=center;fontStyle=4;fontSize=15;" parent="1" vertex="1">
                    <mxGeometry x="817" y="264" width="75" height="30" as="geometry"/>
                </mxCell>
                <mxCell id="10" value="학과코드" style="ellipse;whiteSpace=wrap;html=1;align=center;fontStyle=4;fontSize=15;" parent="1" vertex="1">
                    <mxGeometry x="817" y="514" width="75" height="30" as="geometry"/>
                </mxCell>
                <mxCell id="11" value="학과명" style="ellipse;whiteSpace=wrap;html=1;align=center;fontSize=15;" parent="1" vertex="1">
                    <mxGeometry x="817" y="554" width="75" height="30" as="geometry"/>
                </mxCell>
                <mxCell id="12" value="교수" style="ellipse;whiteSpace=wrap;html=1;align=center;fontSize=15;" parent="1" vertex="1">
                    <mxGeometry x="392" y="534" width="75" height="30" as="geometry"/>
                </mxCell>
                <mxCell id="14" value="교수명" style="ellipse;whiteSpace=wrap;html=1;align=center;fontSize=15;" parent="1" vertex="1">
                    <mxGeometry x="277" y="554" width="75" height="30" as="geometry"/>
                </mxCell>
                <mxCell id="16" value="교수코드" style="ellipse;whiteSpace=wrap;html=1;align=center;fontStyle=4;fontSize=15;" parent="1" vertex="1">
                    <mxGeometry x="277" y="514" width="75" height="30" as="geometry"/>
                </mxCell>
                <mxCell id="21" value="개설과목" style="ellipse;whiteSpace=wrap;html=1;align=center;fontSize=15;" parent="1" vertex="1">
                    <mxGeometry x="392" y="304" width="75" height="30" as="geometry"/>
                </mxCell>
                <mxCell id="22" value="과목명" style="ellipse;whiteSpace=wrap;html=1;align=center;fontSize=15;" parent="1" vertex="1">
                    <mxGeometry x="277" y="264" width="75" height="30" as="geometry"/>
                </mxCell>
                <mxCell id="24" value="시작일" style="ellipse;whiteSpace=wrap;html=1;align=center;fontSize=15;" parent="1" vertex="1">
                    <mxGeometry x="277" y="344" width="75" height="30" as="geometry"/>
                </mxCell>
                <mxCell id="25" value="과목코드" style="ellipse;whiteSpace=wrap;html=1;align=center;fontStyle=4;fontSize=15;" parent="1" vertex="1">
                    <mxGeometry x="277" y="224" width="75" height="30" as="geometry"/>
                </mxCell>
                <mxCell id="26" value="종료일" style="ellipse;whiteSpace=wrap;html=1;align=center;fontSize=15;" parent="1" vertex="1">
                    <mxGeometry x="277" y="384" width="75" height="30" as="geometry"/>
                </mxCell>
                <mxCell id="28" value="" style="endArrow=none;html=1;rounded=0;exitX=0;exitY=0.5;exitDx=0;exitDy=0;entryX=1;entryY=0.5;entryDx=0;entryDy=0;" parent="1" source="21" target="25" edge="1">
                    <mxGeometry relative="1" as="geometry">
                        <mxPoint x="432" y="274" as="sourcePoint"/>
                        <mxPoint x="592" y="274" as="targetPoint"/>
                    </mxGeometry>
                </mxCell>
                <mxCell id="30" value="" style="endArrow=none;html=1;rounded=0;exitX=0;exitY=0.5;exitDx=0;exitDy=0;entryX=1;entryY=0.5;entryDx=0;entryDy=0;" parent="1" source="21" target="22" edge="1">
                    <mxGeometry relative="1" as="geometry">
                        <mxPoint x="247" y="329" as="sourcePoint"/>
                        <mxPoint x="287" y="249" as="targetPoint"/>
                    </mxGeometry>
                </mxCell>
                <mxCell id="32" value="" style="endArrow=none;html=1;rounded=0;exitX=0;exitY=0.5;exitDx=0;exitDy=0;entryX=1;entryY=0.5;entryDx=0;entryDy=0;" parent="1" source="21" target="24" edge="1">
                    <mxGeometry relative="1" as="geometry">
                        <mxPoint x="247" y="329" as="sourcePoint"/>
                        <mxPoint x="287" y="329" as="targetPoint"/>
                    </mxGeometry>
                </mxCell>
                <mxCell id="33" value="" style="endArrow=none;html=1;rounded=0;exitX=0;exitY=0.5;exitDx=0;exitDy=0;entryX=1;entryY=0.5;entryDx=0;entryDy=0;" parent="1" source="21" target="26" edge="1">
                    <mxGeometry relative="1" as="geometry">
                        <mxPoint x="247" y="329" as="sourcePoint"/>
                        <mxPoint x="287" y="369" as="targetPoint"/>
                    </mxGeometry>
                </mxCell>
                <mxCell id="34" value="" style="endArrow=none;html=1;rounded=0;exitX=0;exitY=0.5;exitDx=0;exitDy=0;entryX=1;entryY=0.5;entryDx=0;entryDy=0;" parent="1" source="12" target="16" edge="1">
                    <mxGeometry relative="1" as="geometry">
                        <mxPoint x="247" y="819" as="sourcePoint"/>
                        <mxPoint x="287" y="739" as="targetPoint"/>
                    </mxGeometry>
                </mxCell>
                <mxCell id="36" value="" style="endArrow=none;html=1;rounded=0;exitX=0;exitY=0.5;exitDx=0;exitDy=0;entryX=1;entryY=0.5;entryDx=0;entryDy=0;" parent="1" source="12" target="14" edge="1">
                    <mxGeometry relative="1" as="geometry">
                        <mxPoint x="247" y="559" as="sourcePoint"/>
                        <mxPoint x="287" y="559" as="targetPoint"/>
                    </mxGeometry>
                </mxCell>
                <mxCell id="37" value="" style="endArrow=none;html=1;rounded=0;exitX=1;exitY=0.5;exitDx=0;exitDy=0;entryX=0;entryY=0.5;entryDx=0;entryDy=0;" parent="1" source="2" target="9" edge="1">
                    <mxGeometry relative="1" as="geometry">
                        <mxPoint x="457" y="319" as="sourcePoint"/>
                        <mxPoint x="497" y="359" as="targetPoint"/>
                    </mxGeometry>
                </mxCell>
                <mxCell id="40" value="" style="endArrow=none;html=1;rounded=0;exitX=1;exitY=0.5;exitDx=0;exitDy=0;entryX=0;entryY=0.5;entryDx=0;entryDy=0;" parent="1" source="2" target="7" edge="1">
                    <mxGeometry relative="1" as="geometry">
                        <mxPoint x="787" y="329" as="sourcePoint"/>
                        <mxPoint x="827" y="309" as="targetPoint"/>
                    </mxGeometry>
                </mxCell>
                <mxCell id="41" value="" style="endArrow=none;html=1;rounded=0;exitX=1;exitY=0.5;exitDx=0;exitDy=0;entryX=0;entryY=0.5;entryDx=0;entryDy=0;" parent="1" source="2" target="8" edge="1">
                    <mxGeometry relative="1" as="geometry">
                        <mxPoint x="787" y="329" as="sourcePoint"/>
                        <mxPoint x="827" y="349" as="targetPoint"/>
                    </mxGeometry>
                </mxCell>
                <mxCell id="42" value="" style="endArrow=none;html=1;rounded=0;exitX=1;exitY=0.5;exitDx=0;exitDy=0;entryX=0;entryY=0.5;entryDx=0;entryDy=0;" parent="1" source="3" target="10" edge="1">
                    <mxGeometry relative="1" as="geometry">
                        <mxPoint x="787" y="379" as="sourcePoint"/>
                        <mxPoint x="827" y="439" as="targetPoint"/>
                    </mxGeometry>
                </mxCell>
                <mxCell id="43" value="" style="endArrow=none;html=1;rounded=0;exitX=1;exitY=0.5;exitDx=0;exitDy=0;entryX=0;entryY=0.5;entryDx=0;entryDy=0;" parent="1" source="3" target="11" edge="1">
                    <mxGeometry relative="1" as="geometry">
                        <mxPoint x="787" y="559" as="sourcePoint"/>
                        <mxPoint x="827" y="539" as="targetPoint"/>
                    </mxGeometry>
                </mxCell>
                <mxCell id="44" value="" style="endArrow=none;html=1;rounded=0;exitX=1;exitY=0.5;exitDx=0;exitDy=0;entryX=0;entryY=0.5;entryDx=0;entryDy=0;" parent="1" source="21" target="2" edge="1">
                    <mxGeometry relative="1" as="geometry">
                        <mxPoint x="470" y="290" as="sourcePoint"/>
                        <mxPoint x="630" y="290" as="targetPoint"/>
                    </mxGeometry>
                </mxCell>
                <mxCell id="45" value="N" style="resizable=0;html=1;whiteSpace=wrap;align=left;verticalAlign=bottom;" parent="44" connectable="0" vertex="1">
                    <mxGeometry x="-1" relative="1" as="geometry"/>
                </mxCell>
                <mxCell id="46" value="M" style="resizable=0;html=1;whiteSpace=wrap;align=right;verticalAlign=bottom;" parent="44" connectable="0" vertex="1">
                    <mxGeometry x="1" relative="1" as="geometry"/>
                </mxCell>
                <mxCell id="19" value="수강" style="shape=rhombus;perimeter=rhombusPerimeter;whiteSpace=wrap;html=1;align=center;fontSize=15;" parent="1" vertex="1">
                    <mxGeometry x="542" y="299" width="80" height="40" as="geometry"/>
                </mxCell>
                <mxCell id="49" value="" style="endArrow=none;html=1;rounded=0;exitX=0.5;exitY=1;exitDx=0;exitDy=0;entryX=0.5;entryY=0;entryDx=0;entryDy=0;" parent="1" source="21" target="12" edge="1">
                    <mxGeometry relative="1" as="geometry">
                        <mxPoint x="540" y="400" as="sourcePoint"/>
                        <mxPoint x="700" y="400" as="targetPoint"/>
                    </mxGeometry>
                </mxCell>
                <mxCell id="50" value="N" style="resizable=0;html=1;whiteSpace=wrap;align=left;verticalAlign=bottom;" parent="49" connectable="0" vertex="1">
                    <mxGeometry x="-1" relative="1" as="geometry">
                        <mxPoint x="-15" y="18" as="offset"/>
                    </mxGeometry>
                </mxCell>
                <mxCell id="51" value="1" style="resizable=0;html=1;whiteSpace=wrap;align=right;verticalAlign=bottom;" parent="49" connectable="0" vertex="1">
                    <mxGeometry x="1" relative="1" as="geometry">
                        <mxPoint x="-3" y="-2" as="offset"/>
                    </mxGeometry>
                </mxCell>
                <mxCell id="53" value="" style="endArrow=none;html=1;rounded=0;exitX=0.5;exitY=1;exitDx=0;exitDy=0;entryX=0.5;entryY=0;entryDx=0;entryDy=0;" parent="1" edge="1">
                    <mxGeometry relative="1" as="geometry">
                        <mxPoint x="741.5699999999999" y="334" as="sourcePoint"/>
                        <mxPoint x="741.5699999999999" y="534" as="targetPoint"/>
                    </mxGeometry>
                </mxCell>
                <mxCell id="54" value="N" style="resizable=0;html=1;whiteSpace=wrap;align=left;verticalAlign=bottom;" parent="53" connectable="0" vertex="1">
                    <mxGeometry x="-1" relative="1" as="geometry">
                        <mxPoint x="-15" y="18" as="offset"/>
                    </mxGeometry>
                </mxCell>
                <mxCell id="55" value="1" style="resizable=0;html=1;whiteSpace=wrap;align=right;verticalAlign=bottom;" parent="53" connectable="0" vertex="1">
                    <mxGeometry x="1" relative="1" as="geometry">
                        <mxPoint x="-3" y="-2" as="offset"/>
                    </mxGeometry>
                </mxCell>
                <mxCell id="18" value="소속" style="shape=rhombus;perimeter=rhombusPerimeter;whiteSpace=wrap;html=1;align=center;fontSize=15;" parent="1" vertex="1">
                    <mxGeometry x="702" y="414" width="80" height="40" as="geometry"/>
                </mxCell>
                <mxCell id="20" value="강의" style="shape=rhombus;perimeter=rhombusPerimeter;whiteSpace=wrap;html=1;align=center;fontSize=15;" parent="1" vertex="1">
                    <mxGeometry x="389.5" y="414" width="80" height="40" as="geometry"/>
                </mxCell>
                <mxCell id="57" value="" style="endArrow=none;html=1;rounded=0;exitX=1;exitY=0.5;exitDx=0;exitDy=0;entryX=0;entryY=0.5;entryDx=0;entryDy=0;" parent="1" source="12" target="3" edge="1">
                    <mxGeometry relative="1" as="geometry">
                        <mxPoint x="530" y="429" as="sourcePoint"/>
                        <mxPoint x="530" y="629" as="targetPoint"/>
                    </mxGeometry>
                </mxCell>
                <mxCell id="58" value="N" style="resizable=0;html=1;whiteSpace=wrap;align=left;verticalAlign=bottom;" parent="57" connectable="0" vertex="1">
                    <mxGeometry x="-1" relative="1" as="geometry">
                        <mxPoint x="3" y="1" as="offset"/>
                    </mxGeometry>
                </mxCell>
                <mxCell id="59" value="1" style="resizable=0;html=1;whiteSpace=wrap;align=right;verticalAlign=bottom;" parent="57" connectable="0" vertex="1">
                    <mxGeometry x="1" relative="1" as="geometry">
                        <mxPoint x="-3" y="-2" as="offset"/>
                    </mxGeometry>
                </mxCell>
                <mxCell id="56" value="소속" style="shape=rhombus;perimeter=rhombusPerimeter;whiteSpace=wrap;html=1;align=center;fontSize=15;" parent="1" vertex="1">
                    <mxGeometry x="542" y="530" width="78" height="39" as="geometry"/>
                </mxCell>
                <mxCell id="JZcHNKM4s_XMoxkXmlBT-59" value="수강번호" style="ellipse;whiteSpace=wrap;html=1;align=center;fontStyle=4;fontSize=15;" parent="1" vertex="1">
                    <mxGeometry x="500" y="214" width="75" height="30" as="geometry"/>
                </mxCell>
                <mxCell id="JZcHNKM4s_XMoxkXmlBT-61" value="수강일" style="ellipse;whiteSpace=wrap;html=1;align=center;fontSize=15;" parent="1" vertex="1">
                    <mxGeometry x="590" y="214" width="75" height="30" as="geometry"/>
                </mxCell>
                <mxCell id="y2mSvNMbMpZ3Wx20DEeY-61" value="" style="endArrow=none;html=1;rounded=0;exitX=0.5;exitY=1;exitDx=0;exitDy=0;entryX=0.5;entryY=0;entryDx=0;entryDy=0;" parent="1" source="JZcHNKM4s_XMoxkXmlBT-61" target="19" edge="1">
                    <mxGeometry relative="1" as="geometry">
                        <mxPoint x="592" y="254" as="sourcePoint"/>
                        <mxPoint x="592" y="309" as="targetPoint"/>
                    </mxGeometry>
                </mxCell>
                <mxCell id="y2mSvNMbMpZ3Wx20DEeY-62" value="" style="endArrow=none;html=1;rounded=0;exitX=0.5;exitY=1;exitDx=0;exitDy=0;entryX=0.5;entryY=0;entryDx=0;entryDy=0;" parent="1" source="JZcHNKM4s_XMoxkXmlBT-59" target="19" edge="1">
                    <mxGeometry relative="1" as="geometry">
                        <mxPoint x="676" y="254" as="sourcePoint"/>
                        <mxPoint x="592" y="309" as="targetPoint"/>
                    </mxGeometry>
                </mxCell>
            </root>
        </mxGraphModel>
    </diagram>
    <diagram id="DsDTQnBd63ckq8sK82Fo" name="학사관리2">
        <mxGraphModel dx="817" dy="660" grid="1" gridSize="10" guides="1" tooltips="1" connect="1" arrows="1" fold="1" page="1" pageScale="1" pageWidth="1169" pageHeight="827" math="0" shadow="0">
            <root>
                <mxCell id="0"/>
                <mxCell id="1" parent="0"/>
                <mxCell id="hBGOaly_u9701TuGnQth-31" value="학생" style="shape=table;startSize=30;container=1;collapsible=1;childLayout=tableLayout;fixedRows=1;rowLines=0;fontStyle=1;align=center;resizeLast=1;html=1;" parent="1" vertex="1">
                    <mxGeometry x="405" y="237" width="100" height="150" as="geometry"/>
                </mxCell>
                <mxCell id="hBGOaly_u9701TuGnQth-32" value="" style="shape=tableRow;horizontal=0;startSize=0;swimlaneHead=0;swimlaneBody=0;fillColor=none;collapsible=0;dropTarget=0;points=[[0,0.5],[1,0.5]];portConstraint=eastwest;top=0;left=0;right=0;bottom=1;" parent="hBGOaly_u9701TuGnQth-31" vertex="1">
                    <mxGeometry y="30" width="100" height="30" as="geometry"/>
                </mxCell>
                <mxCell id="hBGOaly_u9701TuGnQth-33" value="PK" style="shape=partialRectangle;connectable=0;fillColor=none;top=0;left=0;bottom=0;right=0;fontStyle=1;overflow=hidden;whiteSpace=wrap;html=1;" parent="hBGOaly_u9701TuGnQth-32" vertex="1">
                    <mxGeometry width="30" height="30" as="geometry">
                        <mxRectangle width="30" height="30" as="alternateBounds"/>
                    </mxGeometry>
                </mxCell>
                <mxCell id="hBGOaly_u9701TuGnQth-34" value="학번" style="shape=partialRectangle;connectable=0;fillColor=none;top=0;left=0;bottom=0;right=0;align=left;spacingLeft=6;fontStyle=5;overflow=hidden;whiteSpace=wrap;html=1;" parent="hBGOaly_u9701TuGnQth-32" vertex="1">
                    <mxGeometry x="30" width="70" height="30" as="geometry">
                        <mxRectangle width="70" height="30" as="alternateBounds"/>
                    </mxGeometry>
                </mxCell>
                <mxCell id="mKmhaVHuOT8psV6PgwVP-20" value="" style="shape=tableRow;horizontal=0;startSize=0;swimlaneHead=0;swimlaneBody=0;fillColor=none;collapsible=0;dropTarget=0;points=[[0,0.5],[1,0.5]];portConstraint=eastwest;top=0;left=0;right=0;bottom=1;" parent="hBGOaly_u9701TuGnQth-31" vertex="1">
                    <mxGeometry y="60" width="100" height="30" as="geometry"/>
                </mxCell>
                <mxCell id="mKmhaVHuOT8psV6PgwVP-21" value="FK" style="shape=partialRectangle;connectable=0;fillColor=none;top=0;left=0;bottom=0;right=0;fontStyle=1;overflow=hidden;whiteSpace=wrap;html=1;" parent="mKmhaVHuOT8psV6PgwVP-20" vertex="1">
                    <mxGeometry width="30" height="30" as="geometry">
                        <mxRectangle width="30" height="30" as="alternateBounds"/>
                    </mxGeometry>
                </mxCell>
                <mxCell id="mKmhaVHuOT8psV6PgwVP-22" value="학과코드" style="shape=partialRectangle;connectable=0;fillColor=none;top=0;left=0;bottom=0;right=0;align=left;spacingLeft=6;fontStyle=5;overflow=hidden;whiteSpace=wrap;html=1;" parent="mKmhaVHuOT8psV6PgwVP-20" vertex="1">
                    <mxGeometry x="30" width="70" height="30" as="geometry">
                        <mxRectangle width="70" height="30" as="alternateBounds"/>
                    </mxGeometry>
                </mxCell>
                <mxCell id="hBGOaly_u9701TuGnQth-35" value="" style="shape=tableRow;horizontal=0;startSize=0;swimlaneHead=0;swimlaneBody=0;fillColor=none;collapsible=0;dropTarget=0;points=[[0,0.5],[1,0.5]];portConstraint=eastwest;top=0;left=0;right=0;bottom=0;" parent="hBGOaly_u9701TuGnQth-31" vertex="1">
                    <mxGeometry y="90" width="100" height="30" as="geometry"/>
                </mxCell>
                <mxCell id="hBGOaly_u9701TuGnQth-36" value="" style="shape=partialRectangle;connectable=0;fillColor=none;top=0;left=0;bottom=0;right=0;editable=1;overflow=hidden;whiteSpace=wrap;html=1;" parent="hBGOaly_u9701TuGnQth-35" vertex="1">
                    <mxGeometry width="30" height="30" as="geometry">
                        <mxRectangle width="30" height="30" as="alternateBounds"/>
                    </mxGeometry>
                </mxCell>
                <mxCell id="hBGOaly_u9701TuGnQth-37" value="이름" style="shape=partialRectangle;connectable=0;fillColor=none;top=0;left=0;bottom=0;right=0;align=left;spacingLeft=6;overflow=hidden;whiteSpace=wrap;html=1;" parent="hBGOaly_u9701TuGnQth-35" vertex="1">
                    <mxGeometry x="30" width="70" height="30" as="geometry">
                        <mxRectangle width="70" height="30" as="alternateBounds"/>
                    </mxGeometry>
                </mxCell>
                <mxCell id="hBGOaly_u9701TuGnQth-38" value="" style="shape=tableRow;horizontal=0;startSize=0;swimlaneHead=0;swimlaneBody=0;fillColor=none;collapsible=0;dropTarget=0;points=[[0,0.5],[1,0.5]];portConstraint=eastwest;top=0;left=0;right=0;bottom=0;" parent="hBGOaly_u9701TuGnQth-31" vertex="1">
                    <mxGeometry y="120" width="100" height="30" as="geometry"/>
                </mxCell>
                <mxCell id="hBGOaly_u9701TuGnQth-39" value="" style="shape=partialRectangle;connectable=0;fillColor=none;top=0;left=0;bottom=0;right=0;editable=1;overflow=hidden;whiteSpace=wrap;html=1;" parent="hBGOaly_u9701TuGnQth-38" vertex="1">
                    <mxGeometry width="30" height="30" as="geometry">
                        <mxRectangle width="30" height="30" as="alternateBounds"/>
                    </mxGeometry>
                </mxCell>
                <mxCell id="hBGOaly_u9701TuGnQth-40" value="키" style="shape=partialRectangle;connectable=0;fillColor=none;top=0;left=0;bottom=0;right=0;align=left;spacingLeft=6;overflow=hidden;whiteSpace=wrap;html=1;" parent="hBGOaly_u9701TuGnQth-38" vertex="1">
                    <mxGeometry x="30" width="70" height="30" as="geometry">
                        <mxRectangle width="70" height="30" as="alternateBounds"/>
                    </mxGeometry>
                </mxCell>
                <mxCell id="hBGOaly_u9701TuGnQth-44" value="학과" style="shape=table;startSize=30;container=1;collapsible=1;childLayout=tableLayout;fixedRows=1;rowLines=0;fontStyle=1;align=center;resizeLast=1;html=1;" parent="1" vertex="1">
                    <mxGeometry x="665" y="237" width="100" height="90" as="geometry"/>
                </mxCell>
                <mxCell id="hBGOaly_u9701TuGnQth-45" value="" style="shape=tableRow;horizontal=0;startSize=0;swimlaneHead=0;swimlaneBody=0;fillColor=none;collapsible=0;dropTarget=0;points=[[0,0.5],[1,0.5]];portConstraint=eastwest;top=0;left=0;right=0;bottom=1;" parent="hBGOaly_u9701TuGnQth-44" vertex="1">
                    <mxGeometry y="30" width="100" height="30" as="geometry"/>
                </mxCell>
                <mxCell id="hBGOaly_u9701TuGnQth-46" value="PK" style="shape=partialRectangle;connectable=0;fillColor=none;top=0;left=0;bottom=0;right=0;fontStyle=1;overflow=hidden;whiteSpace=wrap;html=1;" parent="hBGOaly_u9701TuGnQth-45" vertex="1">
                    <mxGeometry width="30" height="30" as="geometry">
                        <mxRectangle width="30" height="30" as="alternateBounds"/>
                    </mxGeometry>
                </mxCell>
                <mxCell id="hBGOaly_u9701TuGnQth-47" value="학과코드" style="shape=partialRectangle;connectable=0;fillColor=none;top=0;left=0;bottom=0;right=0;align=left;spacingLeft=6;fontStyle=5;overflow=hidden;whiteSpace=wrap;html=1;" parent="hBGOaly_u9701TuGnQth-45" vertex="1">
                    <mxGeometry x="30" width="70" height="30" as="geometry">
                        <mxRectangle width="70" height="30" as="alternateBounds"/>
                    </mxGeometry>
                </mxCell>
                <mxCell id="hBGOaly_u9701TuGnQth-48" value="" style="shape=tableRow;horizontal=0;startSize=0;swimlaneHead=0;swimlaneBody=0;fillColor=none;collapsible=0;dropTarget=0;points=[[0,0.5],[1,0.5]];portConstraint=eastwest;top=0;left=0;right=0;bottom=0;" parent="hBGOaly_u9701TuGnQth-44" vertex="1">
                    <mxGeometry y="60" width="100" height="30" as="geometry"/>
                </mxCell>
                <mxCell id="hBGOaly_u9701TuGnQth-49" value="" style="shape=partialRectangle;connectable=0;fillColor=none;top=0;left=0;bottom=0;right=0;editable=1;overflow=hidden;whiteSpace=wrap;html=1;" parent="hBGOaly_u9701TuGnQth-48" vertex="1">
                    <mxGeometry width="30" height="30" as="geometry">
                        <mxRectangle width="30" height="30" as="alternateBounds"/>
                    </mxGeometry>
                </mxCell>
                <mxCell id="hBGOaly_u9701TuGnQth-50" value="학과명" style="shape=partialRectangle;connectable=0;fillColor=none;top=0;left=0;bottom=0;right=0;align=left;spacingLeft=6;overflow=hidden;whiteSpace=wrap;html=1;" parent="hBGOaly_u9701TuGnQth-48" vertex="1">
                    <mxGeometry x="30" width="70" height="30" as="geometry">
                        <mxRectangle width="70" height="30" as="alternateBounds"/>
                    </mxGeometry>
                </mxCell>
                <mxCell id="mKmhaVHuOT8psV6PgwVP-1" value="개설과목" style="shape=table;startSize=30;container=1;collapsible=1;childLayout=tableLayout;fixedRows=1;rowLines=0;fontStyle=1;align=center;resizeLast=1;html=1;" parent="1" vertex="1">
                    <mxGeometry x="405" y="411" width="100" height="180" as="geometry"/>
                </mxCell>
                <mxCell id="mKmhaVHuOT8psV6PgwVP-2" value="" style="shape=tableRow;horizontal=0;startSize=0;swimlaneHead=0;swimlaneBody=0;fillColor=none;collapsible=0;dropTarget=0;points=[[0,0.5],[1,0.5]];portConstraint=eastwest;top=0;left=0;right=0;bottom=1;" parent="mKmhaVHuOT8psV6PgwVP-1" vertex="1">
                    <mxGeometry y="30" width="100" height="30" as="geometry"/>
                </mxCell>
                <mxCell id="mKmhaVHuOT8psV6PgwVP-3" value="PK" style="shape=partialRectangle;connectable=0;fillColor=none;top=0;left=0;bottom=0;right=0;fontStyle=1;overflow=hidden;whiteSpace=wrap;html=1;" parent="mKmhaVHuOT8psV6PgwVP-2" vertex="1">
                    <mxGeometry width="30" height="30" as="geometry">
                        <mxRectangle width="30" height="30" as="alternateBounds"/>
                    </mxGeometry>
                </mxCell>
                <mxCell id="mKmhaVHuOT8psV6PgwVP-4" value="과목코드" style="shape=partialRectangle;connectable=0;fillColor=none;top=0;left=0;bottom=0;right=0;align=left;spacingLeft=6;fontStyle=5;overflow=hidden;whiteSpace=wrap;html=1;" parent="mKmhaVHuOT8psV6PgwVP-2" vertex="1">
                    <mxGeometry x="30" width="70" height="30" as="geometry">
                        <mxRectangle width="70" height="30" as="alternateBounds"/>
                    </mxGeometry>
                </mxCell>
                <mxCell id="mKmhaVHuOT8psV6PgwVP-23" value="" style="shape=tableRow;horizontal=0;startSize=0;swimlaneHead=0;swimlaneBody=0;fillColor=none;collapsible=0;dropTarget=0;points=[[0,0.5],[1,0.5]];portConstraint=eastwest;top=0;left=0;right=0;bottom=1;" parent="mKmhaVHuOT8psV6PgwVP-1" vertex="1">
                    <mxGeometry y="60" width="100" height="30" as="geometry"/>
                </mxCell>
                <mxCell id="mKmhaVHuOT8psV6PgwVP-24" value="FK" style="shape=partialRectangle;connectable=0;fillColor=none;top=0;left=0;bottom=0;right=0;fontStyle=1;overflow=hidden;whiteSpace=wrap;html=1;" parent="mKmhaVHuOT8psV6PgwVP-23" vertex="1">
                    <mxGeometry width="30" height="30" as="geometry">
                        <mxRectangle width="30" height="30" as="alternateBounds"/>
                    </mxGeometry>
                </mxCell>
                <mxCell id="mKmhaVHuOT8psV6PgwVP-25" value="교수코드" style="shape=partialRectangle;connectable=0;fillColor=none;top=0;left=0;bottom=0;right=0;align=left;spacingLeft=6;fontStyle=5;overflow=hidden;whiteSpace=wrap;html=1;" parent="mKmhaVHuOT8psV6PgwVP-23" vertex="1">
                    <mxGeometry x="30" width="70" height="30" as="geometry">
                        <mxRectangle width="70" height="30" as="alternateBounds"/>
                    </mxGeometry>
                </mxCell>
                <mxCell id="mKmhaVHuOT8psV6PgwVP-5" value="" style="shape=tableRow;horizontal=0;startSize=0;swimlaneHead=0;swimlaneBody=0;fillColor=none;collapsible=0;dropTarget=0;points=[[0,0.5],[1,0.5]];portConstraint=eastwest;top=0;left=0;right=0;bottom=0;" parent="mKmhaVHuOT8psV6PgwVP-1" vertex="1">
                    <mxGeometry y="90" width="100" height="30" as="geometry"/>
                </mxCell>
                <mxCell id="mKmhaVHuOT8psV6PgwVP-6" value="" style="shape=partialRectangle;connectable=0;fillColor=none;top=0;left=0;bottom=0;right=0;editable=1;overflow=hidden;whiteSpace=wrap;html=1;" parent="mKmhaVHuOT8psV6PgwVP-5" vertex="1">
                    <mxGeometry width="30" height="30" as="geometry">
                        <mxRectangle width="30" height="30" as="alternateBounds"/>
                    </mxGeometry>
                </mxCell>
                <mxCell id="mKmhaVHuOT8psV6PgwVP-7" value="과목명" style="shape=partialRectangle;connectable=0;fillColor=none;top=0;left=0;bottom=0;right=0;align=left;spacingLeft=6;overflow=hidden;whiteSpace=wrap;html=1;" parent="mKmhaVHuOT8psV6PgwVP-5" vertex="1">
                    <mxGeometry x="30" width="70" height="30" as="geometry">
                        <mxRectangle width="70" height="30" as="alternateBounds"/>
                    </mxGeometry>
                </mxCell>
                <mxCell id="mKmhaVHuOT8psV6PgwVP-11" value="" style="shape=tableRow;horizontal=0;startSize=0;swimlaneHead=0;swimlaneBody=0;fillColor=none;collapsible=0;dropTarget=0;points=[[0,0.5],[1,0.5]];portConstraint=eastwest;top=0;left=0;right=0;bottom=0;" parent="mKmhaVHuOT8psV6PgwVP-1" vertex="1">
                    <mxGeometry y="120" width="100" height="30" as="geometry"/>
                </mxCell>
                <mxCell id="mKmhaVHuOT8psV6PgwVP-12" value="" style="shape=partialRectangle;connectable=0;fillColor=none;top=0;left=0;bottom=0;right=0;editable=1;overflow=hidden;whiteSpace=wrap;html=1;" parent="mKmhaVHuOT8psV6PgwVP-11" vertex="1">
                    <mxGeometry width="30" height="30" as="geometry">
                        <mxRectangle width="30" height="30" as="alternateBounds"/>
                    </mxGeometry>
                </mxCell>
                <mxCell id="mKmhaVHuOT8psV6PgwVP-13" value="시작일" style="shape=partialRectangle;connectable=0;fillColor=none;top=0;left=0;bottom=0;right=0;align=left;spacingLeft=6;overflow=hidden;whiteSpace=wrap;html=1;" parent="mKmhaVHuOT8psV6PgwVP-11" vertex="1">
                    <mxGeometry x="30" width="70" height="30" as="geometry">
                        <mxRectangle width="70" height="30" as="alternateBounds"/>
                    </mxGeometry>
                </mxCell>
                <mxCell id="mKmhaVHuOT8psV6PgwVP-14" value="" style="shape=tableRow;horizontal=0;startSize=0;swimlaneHead=0;swimlaneBody=0;fillColor=none;collapsible=0;dropTarget=0;points=[[0,0.5],[1,0.5]];portConstraint=eastwest;top=0;left=0;right=0;bottom=0;" parent="mKmhaVHuOT8psV6PgwVP-1" vertex="1">
                    <mxGeometry y="150" width="100" height="30" as="geometry"/>
                </mxCell>
                <mxCell id="mKmhaVHuOT8psV6PgwVP-15" value="" style="shape=partialRectangle;connectable=0;fillColor=none;top=0;left=0;bottom=0;right=0;editable=1;overflow=hidden;whiteSpace=wrap;html=1;" parent="mKmhaVHuOT8psV6PgwVP-14" vertex="1">
                    <mxGeometry width="30" height="30" as="geometry">
                        <mxRectangle width="30" height="30" as="alternateBounds"/>
                    </mxGeometry>
                </mxCell>
                <mxCell id="mKmhaVHuOT8psV6PgwVP-16" value="종료일" style="shape=partialRectangle;connectable=0;fillColor=none;top=0;left=0;bottom=0;right=0;align=left;spacingLeft=6;overflow=hidden;whiteSpace=wrap;html=1;" parent="mKmhaVHuOT8psV6PgwVP-14" vertex="1">
                    <mxGeometry x="30" width="70" height="30" as="geometry">
                        <mxRectangle width="70" height="30" as="alternateBounds"/>
                    </mxGeometry>
                </mxCell>
                <mxCell id="hBGOaly_u9701TuGnQth-18" value="교수" style="shape=table;startSize=30;container=1;collapsible=1;childLayout=tableLayout;fixedRows=1;rowLines=0;fontStyle=1;align=center;resizeLast=1;html=1;" parent="1" vertex="1">
                    <mxGeometry x="665" y="411" width="100" height="120" as="geometry"/>
                </mxCell>
                <mxCell id="hBGOaly_u9701TuGnQth-19" value="" style="shape=tableRow;horizontal=0;startSize=0;swimlaneHead=0;swimlaneBody=0;fillColor=none;collapsible=0;dropTarget=0;points=[[0,0.5],[1,0.5]];portConstraint=eastwest;top=0;left=0;right=0;bottom=1;" parent="hBGOaly_u9701TuGnQth-18" vertex="1">
                    <mxGeometry y="30" width="100" height="30" as="geometry"/>
                </mxCell>
                <mxCell id="hBGOaly_u9701TuGnQth-20" value="PK" style="shape=partialRectangle;connectable=0;fillColor=none;top=0;left=0;bottom=0;right=0;fontStyle=1;overflow=hidden;whiteSpace=wrap;html=1;" parent="hBGOaly_u9701TuGnQth-19" vertex="1">
                    <mxGeometry width="30" height="30" as="geometry">
                        <mxRectangle width="30" height="30" as="alternateBounds"/>
                    </mxGeometry>
                </mxCell>
                <mxCell id="hBGOaly_u9701TuGnQth-21" value="교수코드" style="shape=partialRectangle;connectable=0;fillColor=none;top=0;left=0;bottom=0;right=0;align=left;spacingLeft=6;fontStyle=5;overflow=hidden;whiteSpace=wrap;html=1;" parent="hBGOaly_u9701TuGnQth-19" vertex="1">
                    <mxGeometry x="30" width="70" height="30" as="geometry">
                        <mxRectangle width="70" height="30" as="alternateBounds"/>
                    </mxGeometry>
                </mxCell>
                <mxCell id="mKmhaVHuOT8psV6PgwVP-17" value="" style="shape=tableRow;horizontal=0;startSize=0;swimlaneHead=0;swimlaneBody=0;fillColor=none;collapsible=0;dropTarget=0;points=[[0,0.5],[1,0.5]];portConstraint=eastwest;top=0;left=0;right=0;bottom=1;" parent="hBGOaly_u9701TuGnQth-18" vertex="1">
                    <mxGeometry y="60" width="100" height="30" as="geometry"/>
                </mxCell>
                <mxCell id="mKmhaVHuOT8psV6PgwVP-18" value="FK" style="shape=partialRectangle;connectable=0;fillColor=none;top=0;left=0;bottom=0;right=0;fontStyle=1;overflow=hidden;whiteSpace=wrap;html=1;" parent="mKmhaVHuOT8psV6PgwVP-17" vertex="1">
                    <mxGeometry width="30" height="30" as="geometry">
                        <mxRectangle width="30" height="30" as="alternateBounds"/>
                    </mxGeometry>
                </mxCell>
                <mxCell id="mKmhaVHuOT8psV6PgwVP-19" value="학과코드" style="shape=partialRectangle;connectable=0;fillColor=none;top=0;left=0;bottom=0;right=0;align=left;spacingLeft=6;fontStyle=5;overflow=hidden;whiteSpace=wrap;html=1;" parent="mKmhaVHuOT8psV6PgwVP-17" vertex="1">
                    <mxGeometry x="30" width="70" height="30" as="geometry">
                        <mxRectangle width="70" height="30" as="alternateBounds"/>
                    </mxGeometry>
                </mxCell>
                <mxCell id="hBGOaly_u9701TuGnQth-22" value="" style="shape=tableRow;horizontal=0;startSize=0;swimlaneHead=0;swimlaneBody=0;fillColor=none;collapsible=0;dropTarget=0;points=[[0,0.5],[1,0.5]];portConstraint=eastwest;top=0;left=0;right=0;bottom=0;" parent="hBGOaly_u9701TuGnQth-18" vertex="1">
                    <mxGeometry y="90" width="100" height="30" as="geometry"/>
                </mxCell>
                <mxCell id="hBGOaly_u9701TuGnQth-23" value="" style="shape=partialRectangle;connectable=0;fillColor=none;top=0;left=0;bottom=0;right=0;editable=1;overflow=hidden;whiteSpace=wrap;html=1;" parent="hBGOaly_u9701TuGnQth-22" vertex="1">
                    <mxGeometry width="30" height="30" as="geometry">
                        <mxRectangle width="30" height="30" as="alternateBounds"/>
                    </mxGeometry>
                </mxCell>
                <mxCell id="hBGOaly_u9701TuGnQth-24" value="교수명" style="shape=partialRectangle;connectable=0;fillColor=none;top=0;left=0;bottom=0;right=0;align=left;spacingLeft=6;overflow=hidden;whiteSpace=wrap;html=1;" parent="hBGOaly_u9701TuGnQth-22" vertex="1">
                    <mxGeometry x="30" width="70" height="30" as="geometry">
                        <mxRectangle width="70" height="30" as="alternateBounds"/>
                    </mxGeometry>
                </mxCell>
                <mxCell id="mKmhaVHuOT8psV6PgwVP-26" value="수강" style="shape=table;startSize=30;container=1;collapsible=1;childLayout=tableLayout;fixedRows=1;rowLines=0;fontStyle=1;align=center;resizeLast=1;html=1;" parent="1" vertex="1">
                    <mxGeometry x="535" y="40" width="100" height="150" as="geometry"/>
                </mxCell>
                <mxCell id="mKmhaVHuOT8psV6PgwVP-27" value="" style="shape=tableRow;horizontal=0;startSize=0;swimlaneHead=0;swimlaneBody=0;fillColor=none;collapsible=0;dropTarget=0;points=[[0,0.5],[1,0.5]];portConstraint=eastwest;top=0;left=0;right=0;bottom=1;" parent="mKmhaVHuOT8psV6PgwVP-26" vertex="1">
                    <mxGeometry y="30" width="100" height="30" as="geometry"/>
                </mxCell>
                <mxCell id="mKmhaVHuOT8psV6PgwVP-28" value="PK" style="shape=partialRectangle;connectable=0;fillColor=none;top=0;left=0;bottom=0;right=0;fontStyle=1;overflow=hidden;whiteSpace=wrap;html=1;" parent="mKmhaVHuOT8psV6PgwVP-27" vertex="1">
                    <mxGeometry width="30" height="30" as="geometry">
                        <mxRectangle width="30" height="30" as="alternateBounds"/>
                    </mxGeometry>
                </mxCell>
                <mxCell id="mKmhaVHuOT8psV6PgwVP-29" value="수강코드" style="shape=partialRectangle;connectable=0;fillColor=none;top=0;left=0;bottom=0;right=0;align=left;spacingLeft=6;fontStyle=5;overflow=hidden;whiteSpace=wrap;html=1;" parent="mKmhaVHuOT8psV6PgwVP-27" vertex="1">
                    <mxGeometry x="30" width="70" height="30" as="geometry">
                        <mxRectangle width="70" height="30" as="alternateBounds"/>
                    </mxGeometry>
                </mxCell>
                <mxCell id="mKmhaVHuOT8psV6PgwVP-30" value="" style="shape=tableRow;horizontal=0;startSize=0;swimlaneHead=0;swimlaneBody=0;fillColor=none;collapsible=0;dropTarget=0;points=[[0,0.5],[1,0.5]];portConstraint=eastwest;top=0;left=0;right=0;bottom=1;" parent="mKmhaVHuOT8psV6PgwVP-26" vertex="1">
                    <mxGeometry y="60" width="100" height="30" as="geometry"/>
                </mxCell>
                <mxCell id="mKmhaVHuOT8psV6PgwVP-31" value="FK" style="shape=partialRectangle;connectable=0;fillColor=none;top=0;left=0;bottom=0;right=0;fontStyle=1;overflow=hidden;whiteSpace=wrap;html=1;" parent="mKmhaVHuOT8psV6PgwVP-30" vertex="1">
                    <mxGeometry width="30" height="30" as="geometry">
                        <mxRectangle width="30" height="30" as="alternateBounds"/>
                    </mxGeometry>
                </mxCell>
                <mxCell id="mKmhaVHuOT8psV6PgwVP-32" value="학생코드" style="shape=partialRectangle;connectable=0;fillColor=none;top=0;left=0;bottom=0;right=0;align=left;spacingLeft=6;fontStyle=5;overflow=hidden;whiteSpace=wrap;html=1;" parent="mKmhaVHuOT8psV6PgwVP-30" vertex="1">
                    <mxGeometry x="30" width="70" height="30" as="geometry">
                        <mxRectangle width="70" height="30" as="alternateBounds"/>
                    </mxGeometry>
                </mxCell>
                <mxCell id="IdjCB8LoVautaX9MsUMv-1" value="" style="shape=tableRow;horizontal=0;startSize=0;swimlaneHead=0;swimlaneBody=0;fillColor=none;collapsible=0;dropTarget=0;points=[[0,0.5],[1,0.5]];portConstraint=eastwest;top=0;left=0;right=0;bottom=1;" vertex="1" parent="mKmhaVHuOT8psV6PgwVP-26">
                    <mxGeometry y="90" width="100" height="30" as="geometry"/>
                </mxCell>
                <mxCell id="IdjCB8LoVautaX9MsUMv-2" value="FK" style="shape=partialRectangle;connectable=0;fillColor=none;top=0;left=0;bottom=0;right=0;fontStyle=1;overflow=hidden;whiteSpace=wrap;html=1;" vertex="1" parent="IdjCB8LoVautaX9MsUMv-1">
                    <mxGeometry width="30" height="30" as="geometry">
                        <mxRectangle width="30" height="30" as="alternateBounds"/>
                    </mxGeometry>
                </mxCell>
                <mxCell id="IdjCB8LoVautaX9MsUMv-3" value="과목코드" style="shape=partialRectangle;connectable=0;fillColor=none;top=0;left=0;bottom=0;right=0;align=left;spacingLeft=6;fontStyle=5;overflow=hidden;whiteSpace=wrap;html=1;" vertex="1" parent="IdjCB8LoVautaX9MsUMv-1">
                    <mxGeometry x="30" width="70" height="30" as="geometry">
                        <mxRectangle width="70" height="30" as="alternateBounds"/>
                    </mxGeometry>
                </mxCell>
                <mxCell id="mKmhaVHuOT8psV6PgwVP-33" value="" style="shape=tableRow;horizontal=0;startSize=0;swimlaneHead=0;swimlaneBody=0;fillColor=none;collapsible=0;dropTarget=0;points=[[0,0.5],[1,0.5]];portConstraint=eastwest;top=0;left=0;right=0;bottom=0;" parent="mKmhaVHuOT8psV6PgwVP-26" vertex="1">
                    <mxGeometry y="120" width="100" height="30" as="geometry"/>
                </mxCell>
                <mxCell id="mKmhaVHuOT8psV6PgwVP-34" value="" style="shape=partialRectangle;connectable=0;fillColor=none;top=0;left=0;bottom=0;right=0;editable=1;overflow=hidden;whiteSpace=wrap;html=1;" parent="mKmhaVHuOT8psV6PgwVP-33" vertex="1">
                    <mxGeometry width="30" height="30" as="geometry">
                        <mxRectangle width="30" height="30" as="alternateBounds"/>
                    </mxGeometry>
                </mxCell>
                <mxCell id="mKmhaVHuOT8psV6PgwVP-35" value="수강일자" style="shape=partialRectangle;connectable=0;fillColor=none;top=0;left=0;bottom=0;right=0;align=left;spacingLeft=6;overflow=hidden;whiteSpace=wrap;html=1;" parent="mKmhaVHuOT8psV6PgwVP-33" vertex="1">
                    <mxGeometry x="30" width="70" height="30" as="geometry">
                        <mxRectangle width="70" height="30" as="alternateBounds"/>
                    </mxGeometry>
                </mxCell>
            </root>
        </mxGraphModel>
    </diagram>
</mxfile>